<svg xmlns="http://www.w3.org/2000/svg" version="1.1" xmlns:xlink="http://www.w3.org/1999/xlink" xmlns:svgjs="http://svgjs.dev/svgjs" width="100%" height="100%" viewBox="0 0 1000 600"><rect width="1000" height="600" x="0" y="0" fill="#cc313d"/><g><rect width="333.3333333333333" height="333.3333333333333" y="236.42256242332297" fill="#f7c5cc" transform="matrix(0.5835657092668998,0,0,0.5835657092668998,0,64.7709277902915)" x="214.20028686523435"/><path d="M350.98476174220315 478.0892262897739L350.98476174220315 478.0892262897739Q349.61562569541167 478.0892262897739 348.94697785860654 476.97481322843197L348.94697785860654 476.97481322843197L290.7427756833789 361.2350567147818Q287.62241911162164 354.7396205858177 284.24733955441474 349.35859751819544Q280.90410037038913 344.0094148237544 277.7519034254506 339.74280481747405L277.7519034254506 339.74280481747405Q275.9688425273036 337.51397869479024 271.7340728942045 336.04932152845527Q267.4674628879241 334.5846643621202 264.7928715407036 334.5846643621202L264.7928715407036 334.5846643621202Q263.90134109163006 334.5846643621202 263.90134109163006 331.68719040263124L263.90134109163006 331.68719040263124Q263.90134109163006 328.9807586822295 264.7928715407036 328.08922823315606L264.7928715407036 328.08922823315606L293.0034421792439 329.2036412944979L316.5016375869671 328.08922823315606Q316.9474028115038 328.9807586822295 316.82004131877903 331.78271152217485Q316.7245201992354 334.5846643621202 316.0558723624303 334.5846643621202L316.0558723624303 334.5846643621202Q312.45791019295507 334.5846643621202 308.6689057843927 336.2722041407236Q304.8480610026491 337.959743919327 304.8480610026491 341.0801004910843L304.8480610026491 341.0801004910843Q304.8480610026491 347.79841923231686 310.0062014580029 357.6370945453066L310.0062014580029 357.6370945453066L356.3339444366442 449.4328904266968Q357.03443264663053 450.54730348803866 358.1488457079724 450.00601714395833Q359.2632587693143 449.4328904266968 359.7090239938511 448.3184773653549L359.7090239938511 448.3184773653549L378.2719615584887 409.6005835770197L354.77376615076554 361.2350567147818Q351.65340957900827 354.7396205858177 348.2783300218014 349.35859751819544Q344.93509083777576 344.0094148237544 341.7828938928373 339.74280481747405L341.7828938928373 339.74280481747405Q339.9998329946903 337.51397869479024 335.7650633615911 336.04932152845527Q331.49845335531074 334.5846643621202 328.8238620080902 334.5846643621202L328.8238620080902 334.5846643621202Q327.9004911858355 334.5846643621202 327.9004911858355 331.2414251780945L327.9004911858355 331.2414251780945Q327.9004911858355 328.9807586822295 328.8238620080902 328.08922823315606L328.8238620080902 328.08922823315606L357.03443264663053 329.2036412944979L380.30974544208533 328.08922823315606Q380.7555106666221 328.9807586822295 380.62814917389727 331.78271152217485Q380.5326280543537 334.5846643621202 379.8639802175486 334.5846643621202L379.8639802175486 334.5846643621202Q376.26601804807336 334.5846643621202 372.5725347590545 336.1448426479988Q368.8790514700357 337.73686130705863 368.8790514700357 341.0801004910843L368.8790514700357 341.0801004910843Q368.8790514700357 344.0094148237544 370.1208260241024 348.14866333731Q371.36260057816907 352.28791185086556 374.03719192538955 357.6370945453066L374.03719192538955 357.6370945453066L388.81112508146487 387.8854490674435L404.47658868661364 354.9625031980861Q407.62878563155215 348.467067069122 407.62878563155215 341.9716309401578L407.62878563155215 341.9716309401578Q407.62878563155215 338.18262653159536 402.7890489080102 336.3677252602672Q397.9811525576495 334.5846643621202 394.41503076135547 334.5846643621202L394.41503076135547 334.5846643621202Q393.523500312282 334.5846643621202 393.523500312282 331.68719040263124L393.523500312282 331.68719040263124Q393.523500312282 328.9807586822295 394.41503076135547 328.08922823315606L394.41503076135547 328.08922823315606Q403.3621756252718 328.5349934576928 409.061602424706 328.9807586822295Q414.7928695973214 329.4265239067663 417.0216957200052 329.2036412944979L417.0216957200052 329.2036412944979L440.29700851546005 328.08922823315606Q440.7427737399968 328.9807586822295 440.6472526204532 331.78271152217485Q440.5198911277284 334.5846643621202 439.85124329092326 334.5846643621202L439.85124329092326 334.5846643621202Q438.51394761731297 334.5846643621202 435.3617506723745 335.3806736916501Q432.24139410061724 336.1448426479988 429.12103752886 337.60949981433384Q425.96884058392146 339.07415698066893 424.4086622980428 340.85721787881596L424.4086622980428 340.85721787881596Q422.4027187876274 343.3089266137681 419.1550007231454 349.0401937863835Q415.9072826586633 354.7396205858177 411.41779004011454 363.90964806200236L411.41779004011454 363.90964806200236L394.19214814908713 399.28430266631193L418.58187400588383 449.4328904266968Q419.69628706722574 451.4706743102934 421.2564653531044 448.3184773653549L421.2564653531044 448.3184773653549L461.34349518823103 356.29979887169634Q463.34943869864645 351.8421466263288 464.2409691477199 348.2441844568536Q465.16433996997466 344.67806266055953 465.16433996997466 342.1945135524262L465.16433996997466 342.1945135524262Q465.16433996997466 338.4055091438638 460.5474858587011 336.495086752992Q455.96247212060877 334.5846643621202 452.39635032431477 334.5846643621202L452.39635032431477 334.5846643621202Q451.50481987524125 334.5846643621202 451.50481987524125 331.68719040263124L451.50481987524125 331.68719040263124Q451.50481987524125 328.9807586822295 452.39635032431477 328.08922823315606L452.39635032431477 328.08922823315606Q461.34349518823103 328.5349934576928 467.0429219876653 328.885237562686Q472.7741891602807 329.2036412944979 475.22589789523283 329.2036412944979L475.22589789523283 329.2036412944979Q481.72133402419695 329.2036412944979 487.3252397040876 328.7578760699612Q492.897305010797 328.3121108454244 497.3867976293458 328.08922823315606L497.3867976293458 328.08922823315606Q497.83256285388245 329.9041295044843 497.83256285388245 331.4643077903629L497.83256285388245 331.4643077903629Q497.83256285388245 334.5846643621202 496.941032404809 334.5846643621202L496.941032404809 334.5846643621202Q494.7122062821253 334.5846643621202 489.7769484390397 336.2722041407236Q484.8416905959542 337.959743919327 482.38998186100207 340.85721787881596L482.38998186100207 340.85721787881596Q476.11742834430635 348.467067069122 469.39910960307384 363.46388283746563L469.39910960307384 363.46388283746563L421.9569535630907 470.92514232400464Q418.8047566181522 478.0892262897739 413.20085093826157 478.0892262897739L413.20085093826157 478.0892262897739Q411.8635552646513 478.0892262897739 411.1949074278462 476.97481322843197L411.1949074278462 476.97481322843197L383.8758672383794 420.99943717588815L359.7090239938511 470.92514232400464Q356.3339444366442 478.0892262897739 350.98476174220315 478.0892262897739Z " fill="#000000" transform="matrix(0.5835657092668998,0,0,0.5835657092668998,0,64.7709277902915)"/><path d="M713.6927891750643 477.5694305911753L713.6927891750643 477.5694305911753Q712.3905913030449 477.5694305911753 711.7546342027563 476.5095020906944L711.7546342027563 476.5095020906944L656.3960828062098 366.42835639789Q653.4282830048633 360.2504874236584 650.2182138319782 355.13254694990763Q647.0384283305353 350.0448901475992 644.0403448577465 345.9868781743294L644.0403448577465 345.9868781743294Q642.3444592569771 343.86702117336756 638.3167309551495 342.4739722870212Q634.2587189818797 341.0809234006748 631.7148905807254 341.0809234006748L631.7148905807254 341.0809234006748Q630.8669477803408 341.0809234006748 630.8669477803408 338.3251092994244L630.8669477803408 338.3251092994244Q630.8669477803408 335.7509972268279 631.7148905807254 334.9030544264432L631.7148905807254 334.9030544264432L658.546223478614 335.9629829269241L680.8955730030403 334.9030544264432Q681.3195444032327 335.7509972268279 681.1984097174634 338.4159603137514Q681.1075587031365 341.0809234006748 680.471601602848 341.0809234006748L680.471601602848 341.0809234006748Q677.0495467298666 341.0809234006748 673.4457898282316 342.6859579871174Q669.811749255154 344.2909925735599 669.811749255154 347.25879237490653L669.811749255154 347.25879237490653Q669.811749255154 353.64864704923434 674.7177040288086 363.00630152490874L674.7177040288086 363.00630152490874L718.7804459773727 450.3141262930945Q719.4466867491036 451.37405479357534 720.5066152495845 450.8592323790561Q721.5665437500653 450.3141262930945 721.9905151502577 449.2541977926135L721.9905151502577 449.2541977926135L739.6458956011256 412.42925331876205L717.2965460766994 366.42835639789Q714.3287462753527 360.2504874236584 711.1186771024677 355.13254694990763Q707.9388916010249 350.0448901475992 704.9408081282361 345.9868781743294L704.9408081282361 345.9868781743294Q703.2449225274667 343.86702117336756 699.2171942256391 342.4739722870212Q695.1591822523693 341.0809234006748 692.615353851215 341.0809234006748L692.615353851215 341.0809234006748Q691.737127379388 341.0809234006748 691.737127379388 337.901137899232L691.737127379388 337.901137899232Q691.737127379388 335.7509972268279 692.615353851215 334.9030544264432L692.615353851215 334.9030544264432L719.4466867491036 335.9629829269241L741.5840505734336 334.9030544264432Q742.008021973626 335.7509972268279 741.8868872878568 338.4159603137514Q741.7960362735298 341.0809234006748 741.1600791732412 341.0809234006748L741.1600791732412 341.0809234006748Q737.73802430026 341.0809234006748 734.2251184129518 342.5648233013481Q730.7122125256436 344.07900687346375 730.7122125256436 347.25879237490653L730.7122125256436 347.25879237490653Q730.7122125256436 350.0448901475992 731.8932757118938 353.98176743509975Q733.074338898144 357.91864472260033 735.6181672992982 363.00630152490874L735.6181672992982 363.00630152490874L749.669790848531 391.7757893951052L764.5693571981485 360.46247312375453Q767.5674406709375 354.2846041495229 767.5674406709375 348.10673517529125L767.5674406709375 348.10673517529125Q767.5674406709375 344.5029782736561 762.9643226117059 342.7768090014443Q758.3914882239169 341.0809234006748 754.9997170223779 341.0809234006748L754.9997170223779 341.0809234006748Q754.1517742219932 341.0809234006748 754.1517742219932 338.3251092994244L754.1517742219932 338.3251092994244Q754.1517742219932 335.7509972268279 754.9997170223779 334.9030544264432L754.9997170223779 334.9030544264432Q763.5094286976675 335.3270258266356 768.9302058858415 335.7509972268279Q774.3812667454577 336.17496862702023 776.5011237464195 335.9629829269241L776.5011237464195 335.9629829269241L798.6384875707496 334.9030544264432Q799.062458970942 335.7509972268279 798.971607956615 338.4159603137514Q798.8504732708458 341.0809234006748 798.2145161705572 341.0809234006748L798.2145161705572 341.0809234006748Q796.9426019699802 341.0809234006748 793.9445184971912 341.8380151867326Q790.9767186958446 342.5648233013481 788.008918894498 343.9578721876945Q785.0108354217092 345.3509210740408 783.5269355210359 347.04680667481034L783.5269355210359 347.04680667481034Q781.6190642201702 349.37864937586835 778.5301297330543 354.8297102354845Q775.4411952459386 360.2504874236584 771.1711975725725 368.97218479904427L771.1711975725725 368.97218479904427L754.7877313222817 402.61734377145297L777.9850236470927 450.3141262930945Q779.0449521475737 452.2522812654024 780.528852048247 449.2541977926135L780.528852048247 449.2541977926135L818.6559943941179 361.7343873243317Q820.5638656949835 357.49467332240795 821.4118084953683 354.0726184494267Q822.2900349671953 350.68084724788775 822.2900349671953 348.3187208753874L822.2900349671953 348.3187208753874Q822.2900349671953 344.7149639737523 817.8989026080601 342.89794368721357Q813.5380539203671 341.0809234006748 810.1462827188282 341.0809234006748L810.1462827188282 341.0809234006748Q809.2983399184434 341.0809234006748 809.2983399184434 338.3251092994244L809.2983399184434 338.3251092994244Q809.2983399184434 335.7509972268279 810.1462827188282 334.9030544264432L810.1462827188282 334.9030544264432Q818.6559943941179 335.3270258266356 824.0767715822917 335.660146212501Q829.5278324419079 335.9629829269241 831.8596751429659 335.9629829269241L831.8596751429659 335.9629829269241Q838.0375441171976 335.9629829269241 843.3674702910445 335.5390115267317Q848.6671127934492 335.1150401265394 852.937110466815 334.9030544264432L852.937110466815 334.9030544264432Q853.3610818670074 336.629223698655 853.3610818670074 338.1131235993282L853.3610818670074 338.1131235993282Q853.3610818670074 341.0809234006748 852.5131390666227 341.0809234006748L852.5131390666227 341.0809234006748Q850.393282065661 341.0809234006748 845.6993129921025 342.6859579871174Q841.0053439185442 344.2909925735599 838.6735012174861 347.04680667481034L838.6735012174861 347.04680667481034Q832.7076179433507 354.2846041495229 826.3177632690229 368.5482133988519L826.3177632690229 368.5482133988519L781.1950928199778 470.75560451665507Q778.1970093471889 477.5694305911753 772.867083173342 477.5694305911753L772.867083173342 477.5694305911753Q771.5951689727649 477.5694305911753 770.9592118724763 476.5095020906944L770.9592118724763 476.5095020906944L744.9758217749726 423.2708076951098L721.9905151502577 470.75560451665507Q718.7804459773727 477.5694305911753 713.6927891750643 477.5694305911753ZM884.0384410380697 477.145459190983L884.0384410380697 477.145459190983Q872.3186601898948 477.145459190983 862.537034314028 470.96759021675126Q852.725124766719 464.78972124251965 846.8803761783527 454.4629892806912Q841.0053439185442 444.13625731886276 841.0053439185442 431.3565479702071L841.0053439185442 431.3565479702071Q841.0053439185442 416.4569816205896 846.5472557924872 405.61542724424186Q852.0891676664304 394.7435891964518 861.658807842201 388.8988406080856Q871.2587316894139 383.02380834827704 883.1904982376849 383.02380834827704L883.1904982376849 383.02380834827704Q892.9721241135517 383.02380834827704 900.4219072883604 386.74869993568143Q907.8716904631692 390.4735915230858 911.929702436439 396.2274890971251L911.929702436439 396.2274890971251Q915.7454450381704 402.1933723712606 917.5624653247091 408.2803903311653Q919.3794856112479 414.33712461962773 919.3794856112479 420.3030078937632L919.3794856112479 420.3030078937632Q919.3794856112479 424.5427218956869 918.1075714106707 425.5117993818409Q916.8053735386513 426.4808768679949 913.2016166370161 426.4808768679949L913.2016166370161 426.4808768679949L859.5389508412392 426.4808768679949Q857.8430652404697 426.4808768679949 857.8430652404697 427.5408053684758L857.8430652404697 427.5408053684758Q857.8430652404697 436.47448844395785 861.4468221421048 444.6813634048244Q865.0808627151822 452.88823836569094 872.1066744897987 458.1878808680956Q879.1324862644151 463.5178070419425 889.3380835404741 463.5178070419425L889.3380835404741 463.5178070419425Q898.3020502873985 463.5178070419425 904.358784575861 460.85284395501907Q910.4458025357658 458.1878808680956 913.2016166370161 456.0680238671338L913.2016166370161 456.0680238671338L914.6855165376894 455.00809536665287Q915.9574307382666 455.00809536665287 915.9574307382666 457.7639094679032L915.9574307382666 457.7639094679032Q915.9574307382666 459.27809304001886 914.6855165376894 461.60993574107687L914.6855165376894 461.60993574107687Q910.4458025357658 467.57581901521235 902.11779288913 472.36063910309764Q893.8200669139364 477.145459190983 884.0384410380697 477.145459190983ZM859.5389508412392 417.5169101210705L859.5389508412392 417.5169101210705L901.057864388649 417.5169101210705Q902.11779288913 417.5169101210705 902.11779288913 415.39705312010864L902.11779288913 415.39705312010864Q902.11779288913 410.70308404655026 899.6648155023026 405.07032115828025Q897.2421217869178 399.4375582700102 892.3361670132631 395.1675605966442Q887.4302122396086 390.9278465947205 879.9804290647998 390.9278465947205L879.9804290647998 390.9278465947205Q873.1666029902796 390.9278465947205 868.260648216625 395.5006809825096Q863.3849771144128 400.0735153702987 860.8108650418163 405.91826395866497Q858.267036640662 411.79329621847353 858.267036640662 416.0330102203972L858.267036640662 416.0330102203972Q858.267036640662 417.5169101210705 859.5389508412392 417.5169101210705ZM974.7380370077942 477.145459190983L974.7380370077942 477.145459190983Q967.5002395330816 477.145459190983 960.5652787727922 475.7524103046366Q953.6606016839451 474.3896450897326 951.5407446829831 474.3896450897326L951.5407446829831 474.3896450897326Q949.6025897106753 474.3896450897326 946.8467756094249 475.5404246045404Q944.0606778367321 476.7214877907906 943.4247207364435 476.7214877907906L943.4247207364435 476.7214877907906Q942.5767779360588 476.7214877907906 940.7597576495201 476.085530690502Q938.9730210344237 475.44957359021345 938.9730210344237 474.60163078982873L938.9730210344237 474.60163078982873Q938.9730210344237 473.32971658925163 940.2449352350009 466.39475582896216Q941.5168494355779 459.49007874011505 941.5168494355779 447.1343407916517L941.5168494355779 447.1343407916517L941.5168494355779 358.9785732230813Q941.5168494355779 351.74077574836866 940.2449352350009 345.3509210740408L940.2449352350009 345.3509210740408Q939.3969924346161 341.9288662010596 929.3730971872108 341.9288662010596L929.3730971872108 341.9288662010596L927.4652258863451 341.9288662010596Q926.1933116857681 341.9288662010596 926.1933116857681 339.59702350000157L926.1933116857681 339.59702350000157Q926.1933116857681 336.17496862702023 927.4652258863451 336.17496862702023L927.4652258863451 336.17496862702023Q939.3969924346161 335.1150401265394 946.3016695234633 332.9951831255775Q953.2366302837527 330.87532612461564 956.2044300850993 328.72518545221146L956.2044300850993 328.72518545221146L957.052372885484 328.089228351923L957.4763442856763 328.089228351923Q958.3545707575034 328.089228351923 959.2025135578881 329.2702915381731Q960.0504563582729 330.45135472442325 960.2624420583691 331.5112832249042L960.2624420583691 331.5112832249042Q957.930599357311 338.5370949995206 957.930599357311 350.0448901475992L957.930599357311 350.0448901475992L957.930599357311 387.29380602164304Q957.930599357311 389.6256487227011 958.5665564575996 389.6256487227011L958.5665564575996 389.6256487227011Q958.7785421576957 389.6256487227011 958.8693931720227 389.53479770837413Q958.9905278577919 389.4136630226049 959.2025135578881 389.4136630226049L959.2025135578881 389.4136630226049Q962.1703133592348 387.29380602164304 968.3481823334664 384.961963320585Q974.526051307698 382.59983694808466 979.2200203812565 382.59983694808466L979.2200203812565 382.59983694808466Q992.8476725302969 382.59983694808466 1002.6292984061637 389.11082630818174Q1012.4412079534727 395.5915319968365 1017.6499994415503 405.61542724424186Q1022.8587909296281 415.60903882020483 1022.8587909296281 426.2688911678987L1022.8587909296281 426.2688911678987Q1022.8587909296281 436.47448844395785 1018.8007789563583 445.65044089097836Q1014.7730506545308 454.7961096665567 1007.8380898942414 461.9127724555Q1000.9334128053943 469.05971891588564 992.3025664443353 473.11773088915544Q983.6717200832763 477.145459190983 974.7380370077942 477.145459190983ZM978.7960489810641 468.21177611550087L978.7960489810641 468.21177611550087Q986.8817892561615 468.21177611550087 992.6356868302007 462.88184994165397Q998.3593007327977 457.55192376780707 1001.4482352199135 448.9513610781904Q1004.5371697070293 440.3205147171315 1004.5371697070293 430.72059086991857L1004.5371697070293 430.72059086991857Q1004.5371697070293 413.91315321943534 995.7246213173165 403.4652865718377Q986.8817892561615 393.0477035956823 972.4061943067362 393.0477035956823L972.4061943067362 393.0477035956823Q966.4403110326007 393.0477035956823 962.1703133592348 396.3486237828943Q957.930599357311 399.6495439701064 957.930599357311 405.82741294433805L957.930599357311 405.82741294433805L957.930599357311 455.4320667668452Q957.930599357311 462.03390714126925 964.1993193458696 465.12284162838506Q970.4680393344283 468.21177611550087 978.7960489810641 468.21177611550087ZM1064.8016758772305 475.87354499040583L1039.0302714798227 476.5095020906944Q1038.394314379534 475.87354499040583 1038.394314379534 473.32971658925163L1038.394314379534 473.32971658925163Q1038.394314379534 470.33163311646274 1039.0302714798227 470.33163311646274L1039.0302714798227 470.33163311646274Q1040.9684264521306 470.33163311646274 1044.1482119535735 469.60482500184725Q1047.3582811264587 468.84773321578945 1050.2352299134782 467.78780471530854Q1053.0818950290559 466.7278762148276 1053.7481358007867 465.4256783428082L1053.7481358007867 465.4256783428082Q1055.2320357014596 463.09383564175016 1055.2320357014596 445.4384551908822L1055.2320357014596 445.4384551908822L1055.2320357014596 364.9444564972167Q1055.2320357014596 358.7665875229851 1054.8989153155944 354.0726184494267Q1054.5960786011715 349.37864937586835 1053.7481358007867 346.62283527461796L1053.7481358007867 346.62283527461796Q1053.3241644005943 345.3509210740408 1050.4472156135744 344.2909925735599Q1047.5702668265549 343.231064073079 1044.269346639343 342.5648233013481Q1040.9684264521306 341.9288662010596 1039.0302714798227 341.9288662010596L1039.0302714798227 341.9288662010596Q1038.182328679438 341.9288662010596 1038.182328679438 339.3850377999054L1038.182328679438 339.3850377999054Q1038.182328679438 336.629223698655 1039.0302714798227 335.7509972268279L1039.0302714798227 335.7509972268279Q1044.572183353766 335.9629829269241 1050.8711870137668 336.0841176126934Q1057.1399070023253 336.17496862702023 1064.3777044770382 336.17496862702023L1064.3777044770382 336.17496862702023L1085.0311684006947 335.9629829269241Q1091.2090373749265 335.9629829269241 1095.2670493481965 335.8721319125972Q1099.2947776500241 335.7509972268279 1101.4449183224278 335.7509972268279L1101.4449183224278 335.7509972268279Q1124.6422106472392 335.7509972268279 1141.02567689753 345.2297863882716Q1157.4394268192627 354.7085755497153 1166.161124194649 370.2440989996214Q1174.8828215700346 385.80990612096974 1174.8828215700346 404.31322937222245L1174.8828215700346 404.31322937222245Q1174.8828215700346 424.7547075957831 1166.0702731803221 441.3804432176124Q1157.227441119167 457.97589516799945 1140.7228401831067 467.57581901521235Q1124.2182392470468 477.145459190983 1101.2329326223316 476.5095020906944L1101.2329326223316 476.5095020906944L1086.0910969011757 476.085530690502Q1079.701242226848 475.87354499040583 1074.4015997244433 475.7524103046366Q1069.0716735505966 475.66155929030964 1064.8016758772305 475.87354499040583L1064.8016758772305 475.87354499040583ZM1104.6247038238707 466.7278762148276L1104.6247038238707 466.7278762148276Q1153.5934005460895 466.7278762148276 1153.5934005460895 403.4652865718377L1153.5934005460895 403.4652865718377Q1153.5934005460895 387.29380602164304 1147.83950297205 374.090125272795Q1142.1158890694528 360.8864445239469 1130.9109306357977 353.01268994894576Q1119.7362558735845 345.1389353739446 1103.1408039231974 345.1389353739446L1103.1408039231974 345.1389353739446L1102.0808754227164 345.1389353739446Q1079.0652851265595 345.1389353739446 1076.5214567254052 348.5307065754836L1076.5214567254052 348.5307065754836Q1073.7656426241547 352.16474714856105 1073.7656426241547 361.9463730244278L1073.7656426241547 361.9463730244278L1073.7656426241547 446.286397991267Q1073.7656426241547 455.00809536665287 1076.9454281255976 462.45787854146164L1076.9454281255976 462.45787854146164Q1077.36939952579 463.5178070419425 1080.579468698675 464.2748988280003Q1083.759254200118 465.00170694261584 1088.332088587907 465.54681302857745Q1092.904922975696 466.09191911453905 1097.3869063491584 466.39475582896216Q1101.8688897226202 466.7278762148276 1104.6247038238707 466.7278762148276ZM1235.571299140428 477.145459190983L1235.571299140428 477.145459190983Q1223.8818019636956 477.145459190983 1214.0698924163867 470.96759021675126Q1204.2882665405195 464.78972124251965 1198.413234280711 454.4629892806912Q1192.568485692345 444.13625731886276 1192.568485692345 431.3565479702071L1192.568485692345 431.3565479702071Q1192.568485692345 416.4569816205896 1198.1103975662882 405.61542724424186Q1203.6523094402314 394.7435891964518 1213.221949616002 388.8988406080856Q1222.7915897917724 383.02380834827704 1234.7233563400432 383.02380834827704L1234.7233563400432 383.02380834827704Q1244.5352658873526 383.02380834827704 1251.9850490621616 386.74869993568143Q1259.4348322369701 390.4735915230858 1263.4625605387978 396.2274890971251L1263.4625605387978 396.2274890971251Q1267.308586811971 402.1933723712606 1269.12560709851 408.2803903311653Q1270.9123437136063 414.33712461962773 1270.9123437136063 420.3030078937632L1270.9123437136063 420.3030078937632Q1270.9123437136063 424.5427218956869 1269.6404295130292 425.5117993818409Q1268.368515312452 426.4808768679949 1264.7647584108172 426.4808768679949L1264.7647584108172 426.4808768679949L1211.10209261504 426.4808768679949Q1209.3759233428282 426.4808768679949 1209.3759233428282 427.5408053684758L1209.3759233428282 427.5408053684758Q1209.3759233428282 436.47448844395785 1213.0099639159057 444.6813634048244Q1216.613720817541 452.88823836569094 1223.6698162635994 458.1878808680956Q1230.695628038216 463.5178070419425 1240.901225314275 463.5178070419425L1240.901225314275 463.5178070419425Q1249.8349083897574 463.5178070419425 1255.921926349662 460.85284395501907Q1261.9786606381244 458.1878808680956 1264.7647584108172 456.0680238671338L1264.7647584108172 456.0680238671338L1266.2486583114905 455.00809536665287Q1267.5205725120677 455.00809536665287 1267.5205725120677 457.7639094679032L1267.5205725120677 457.7639094679032Q1267.5205725120677 459.27809304001886 1266.2486583114905 461.60993574107687L1266.2486583114905 461.60993574107687Q1261.9786606381244 467.57581901521235 1253.6809346629307 472.36063910309764Q1245.3832086877374 477.145459190983 1235.571299140428 477.145459190983ZM1211.10209261504 417.5169101210705L1211.10209261504 417.5169101210705L1252.6210061624497 417.5169101210705Q1253.6809346629307 417.5169101210705 1253.6809346629307 415.39705312010864L1253.6809346629307 415.39705312010864Q1253.6809346629307 410.70308404655026 1251.2279572761036 405.07032115828025Q1248.7749798892764 399.4375582700102 1243.8690251156218 395.1675605966442Q1238.9933540134093 390.9278465947205 1231.5435708386008 390.9278465947205L1231.5435708386008 390.9278465947205Q1224.7297447640804 390.9278465947205 1219.8237899904261 395.5006809825096Q1214.9178352167714 400.0735153702987 1212.3740068156171 405.91826395866497Q1209.7998947430206 411.79329621847353 1209.7998947430206 416.0330102203972L1209.7998947430206 416.0330102203972Q1209.7998947430206 417.5169101210705 1211.10209261504 417.5169101210705ZM1326.5131644816915 477.3574448910792L1326.5131644816915 477.3574448910792Q1324.7869952094798 473.32971658925163 1320.8501179219793 464.15376414223107Q1316.9132406344784 455.00809536665287 1310.735371660247 440.74448611732385L1310.735371660247 440.74448611732385Q1304.5575026860151 426.2688911678987 1299.2578601836103 414.67024500549314Q1293.9279340097637 403.0413151716453 1289.2339649362052 393.8956463960671L1289.2339649362052 393.8956463960671Q1286.902122235147 389.6256487227011 1276.6662412876458 389.6256487227011L1276.6662412876458 389.6256487227011Q1275.818298487261 389.6256487227011 1275.818298487261 386.8698346214507L1275.818298487261 386.8698346214507Q1275.818298487261 384.32600622029645 1276.6662412876458 383.44777974846943L1276.6662412876458 383.44777974846943Q1282.2081531615886 383.6597654485656 1287.7500650355319 384.1140205202003Q1293.2919769094751 384.53799192039264 1298.833888783418 384.53799192039264L1298.833888783418 384.53799192039264Q1304.1335312858228 384.53799192039264 1309.4634574596698 384.1140205202003Q1314.7933836335164 383.6597654485656 1320.1233098073635 383.44777974846943L1320.1233098073635 383.44777974846943Q1320.547281207556 384.32600622029645 1320.2141608216903 386.9606856357776Q1319.9113241072673 389.6256487227011 1319.2753670069787 389.6256487227011L1319.2753670069787 389.6256487227011Q1308.8275003593812 389.6256487227011 1308.8275003593812 393.2596892957785L1308.8275003593812 393.2596892957785Q1308.8275003593812 393.4716749958747 1309.0394860594774 393.986497410394Q1309.2514717595736 394.5316034963556 1309.4634574596698 394.955574896548L1309.4634574596698 394.955574896548L1334.5989047567887 451.7980261937677L1356.1003114808304 402.82932947154916Q1357.1602399813114 400.7094724705873 1357.4933603671766 399.1044378841448Q1357.7961970816 397.4994032977022 1357.7961970816 396.4394747972213L1357.7961970816 396.4394747972213Q1357.7961970816 389.6256487227011 1342.47265933179 389.6256487227011L1342.47265933179 389.6256487227011Q1341.6247165314053 389.6256487227011 1341.6247165314053 386.8698346214507L1341.6247165314053 386.8698346214507Q1341.6247165314053 384.32600622029645 1342.47265933179 383.44777974846943L1342.47265933179 383.44777974846943Q1344.8045020328477 383.6597654485656 1351.1943567071758 384.20487153452723Q1357.5842113815038 384.74997762048883 1362.7021518552542 384.53799192039264L1362.7021518552542 384.53799192039264L1383.9915728791998 383.44777974846943Q1384.4155442793922 385.1739490206812 1384.4155442793922 386.6578489213545L1384.4155442793922 386.6578489213545Q1384.4155442793922 389.6256487227011 1382.9316443787188 389.6256487227011L1382.9316443787188 389.6256487227011Q1379.9335609059299 389.6256487227011 1375.0578898037174 391.3518179949129Q1370.1519350300632 393.0477035956823 1368.4560494292937 396.8634461974137L1368.4560494292937 396.8634461974137L1334.5989047567887 473.32971658925163Q1333.1150048561153 476.7214877907906 1330.1169213833264 477.6905652769446Q1327.1491215819801 478.6293590916562 1326.5131644816915 477.3574448910792ZM1487.8948495977725 476.7214877907906L1487.8948495977725 476.7214877907906Q1476.8413095213286 476.7214877907906 1453.4017478249789 476.085530690502L1453.4017478249789 476.085530690502Q1441.7122506482465 475.66155929030964 1432.1123268010333 475.44957359021345Q1422.5426866252628 475.2375878901173 1415.3048891505505 475.44957359021345L1415.3048891505505 475.44957359021345L1389.5334847531426 476.085530690502Q1388.8975276528545 475.44957359021345 1388.8975276528545 472.69375948896305L1388.8975276528545 472.69375948896305Q1388.8975276528545 469.9076617162704 1389.5334847531426 469.9076617162704L1389.5334847531426 469.9076617162704Q1391.6533417541045 469.9076617162704 1394.7422762412207 469.27170461598183Q1397.8312107283364 468.63574751569325 1400.7081595153559 467.66667002953926Q1403.5851083023758 466.7278762148276 1404.221065402664 465.4256783428082L1404.221065402664 465.4256783428082Q1405.7049653033373 463.09383564175016 1405.7049653033373 445.4384551908822L1405.7049653033373 445.4384551908822L1405.7049653033373 364.9444564972167Q1405.7049653033373 350.89283294798395 1404.221065402664 345.562906774137L1404.221065402664 345.562906774137Q1403.797094002472 344.2909925735599 1401.0412799012215 343.3219150874059Q1398.2551821285288 342.35283760125196 1395.0753966270859 341.7168805009634Q1391.8653274542007 341.0809234006748 1389.957456153335 341.0809234006748L1389.957456153335 341.0809234006748Q1389.1095133529502 341.0809234006748 1389.1095133529502 338.3251092994244L1389.1095133529502 338.3251092994244Q1389.1095133529502 335.7509972268279 1389.957456153335 334.9030544264432L1389.957456153335 334.9030544264432Q1391.8653274542007 334.9030544264432 1396.4381618419902 335.2361748123086Q1401.0412799012215 335.5390115267317 1406.3409224036259 335.8721319125972Q1411.670848577473 336.17496862702023 1415.5168748506467 336.17496862702023L1415.5168748506467 336.17496862702023Q1422.3307009251666 336.17496862702023 1429.144526999687 335.660146212501Q1435.958353074207 335.1150401265394 1440.1980670761309 334.9030544264432L1440.1980670761309 334.9030544264432Q1440.6220384763233 336.629223698655 1440.6220384763233 338.1131235993282L1440.6220384763233 338.1131235993282Q1440.6220384763233 341.0809234006748 1439.7740956759385 341.0809234006748L1439.7740956759385 341.0809234006748Q1438.5021814753613 341.0809234006748 1435.3223959739184 341.8380151867326Q1432.1123268010333 342.5648233013481 1429.3565126997833 343.5339007875021Q1426.5704149270905 344.5029782736561 1426.146443526898 345.562906774137L1426.146443526898 345.562906774137Q1424.2385722260324 352.80070424884957 1424.2385722260324 365.3684278974091L1424.2385722260324 365.3684278974091L1424.2385722260324 445.65044089097836Q1424.2385722260324 456.9159666675185 1426.146443526898 464.36574984232726L1426.146443526898 464.36574984232726Q1426.7824006271867 466.51589051473144 1440.6220384763233 466.51589051473144L1440.6220384763233 466.51589051473144L1450.8579194238246 466.51589051473144Q1470.4514548470006 466.51589051473144 1477.6892523217134 462.88184994165397L1477.6892523217134 462.88184994165397Q1480.8690378231558 461.1859643408845 1484.8059151106568 455.310932081076Q1488.7427923981572 449.4661834927097 1491.1049187706576 441.3804432176124L1491.1049187706576 441.3804432176124Q1491.52889017085 440.1085290170353 1494.0727185720043 440.1085290170353L1494.0727185720043 440.1085290170353Q1498.1307305452738 440.1085290170353 1499.402644745851 441.3804432176124L1499.402644745851 441.3804432176124Q1498.7666876455623 443.0763288183819 1497.3736387592162 446.5892347056901Q1495.9805898728696 450.1021405929983 1494.7086756722924 453.7361811660757Q1493.4367614717153 457.3399380677109 1492.588818671331 459.91405014030744L1492.588818671331 459.91405014030744Q1491.3169044707538 463.7297927420387 1489.8330045700804 468.63574751569325Q1488.3188209979648 473.5417022893478 1487.8948495977725 476.7214877907906Z " fill="#f7c5cc" transform="matrix(0.5835657092668998,0,0,0.5835657092668998,0,64.7709277902915)"/></g></svg>